<svg width="70" height="70" viewBox="0 0 70 70" fill="none" xmlns="http://www.w3.org/2000/svg">
<path d="M26.3668 62.8249C29.1668 63.6708 31.996 64.1666 35.0002 64.1666C42.7356 64.1666 50.1543 61.0937 55.6241 55.6239C61.0939 50.1541 64.1668 42.7354 64.1668 34.9999C64.1668 31.1697 63.4124 27.377 61.9467 23.8383C60.4809 20.2997 58.3325 17.0843 55.6241 14.376C52.9157 11.6676 49.7004 9.51919 46.1618 8.05343C42.6231 6.58767 38.8304 5.83325 35.0002 5.83325C31.1699 5.83325 27.3772 6.58767 23.8386 8.05343C20.2999 9.51919 17.0846 11.6676 14.3762 14.376C8.9064 19.8458 5.8335 27.2644 5.8335 34.9999C5.8335 47.3958 13.621 58.0416 24.6168 62.2416C24.3543 59.9666 24.0918 56.2041 24.6168 53.6083L27.971 39.1999C27.971 39.1999 27.1252 37.5083 27.1252 34.8249C27.1252 30.7999 29.6335 27.7958 32.4918 27.7958C35.0002 27.7958 36.1668 29.6333 36.1668 31.9958C36.1668 34.5041 34.5043 38.0916 33.6585 41.5333C33.1627 44.3916 35.1752 46.8999 38.0918 46.8999C43.2835 46.8999 47.3085 41.3583 47.3085 33.5416C47.3085 26.5416 42.2918 21.7583 35.0877 21.7583C26.8627 21.7583 22.021 27.8833 22.021 34.3291C22.021 36.8374 22.8377 39.3749 24.1793 41.0374C24.4418 41.2124 24.4418 41.4458 24.3543 41.8833L23.5085 45.0624C23.5085 45.5583 23.1877 45.7333 22.6918 45.3833C18.9585 43.7499 16.8002 38.4416 16.8002 34.1541C16.8002 24.9374 23.3335 16.5666 35.9335 16.5666C45.9668 16.5666 53.7835 23.7708 53.7835 33.3374C53.7835 43.3708 47.571 51.4208 38.6752 51.4208C35.846 51.4208 33.0752 49.9041 32.0835 48.1249L30.1293 55.0374C29.4585 57.5458 27.621 60.8999 26.3668 62.9124V62.8249Z" fill="#CCCCCC"/>
</svg>
