<svg width="41" height="41" viewBox="0 0 41 41" fill="none" xmlns="http://www.w3.org/2000/svg">
<path d="M40.4327 12.4094C40.4104 10.7306 40.0961 9.06843 39.5039 7.49731C38.9904 6.17208 38.2062 4.96853 37.2012 3.96357C36.1962 2.9586 34.9927 2.17432 33.6675 1.66083C32.1165 1.07864 30.4781 0.763833 28.8218 0.729827C26.6894 0.63451 26.0133 0.60791 20.6002 0.60791C15.1871 0.60791 14.4933 0.60791 12.3764 0.729827C10.7209 0.764083 9.08318 1.07888 7.53295 1.66083C6.20752 2.17396 5.00379 2.95812 3.99877 3.96313C2.99376 4.96814 2.20961 6.17187 1.69647 7.49731C1.11311 9.04705 0.798994 10.6851 0.767688 12.3407C0.672371 14.4754 0.643555 15.1515 0.643555 20.5646C0.643555 25.9777 0.643555 26.6693 0.767688 28.7884C0.800938 30.4465 1.11349 32.0824 1.69647 33.6362C2.21047 34.9613 2.99521 36.1645 4.00055 37.1691C5.0059 38.1737 6.20975 38.9575 7.53517 39.4705C9.08115 40.0761 10.7191 40.4134 12.3786 40.468C14.5132 40.5633 15.1893 40.5921 20.6024 40.5921C26.0155 40.5921 26.7093 40.5921 28.8263 40.468C30.4824 40.4354 32.121 40.1213 33.6719 39.5392C34.9968 39.0251 36.2 38.2406 37.2049 37.2358C38.2098 36.2309 38.9943 35.0276 39.5084 33.7027C40.0914 32.1511 40.4039 30.5152 40.4372 28.8549C40.5325 26.7225 40.5613 26.0464 40.5613 20.6311C40.5569 15.218 40.5569 14.5308 40.4327 12.4094V12.4094ZM20.5869 30.8011C14.9255 30.8011 10.3393 26.2148 10.3393 20.5535C10.3393 14.8921 14.9255 10.3058 20.5869 10.3058C23.3048 10.3058 25.9113 11.3855 27.8331 13.3073C29.7549 15.2291 30.8346 17.8356 30.8346 20.5535C30.8346 23.2713 29.7549 25.8779 27.8331 27.7997C25.9113 29.7215 23.3048 30.8011 20.5869 30.8011V30.8011ZM31.2424 12.3163C30.9285 12.3166 30.6177 12.255 30.3276 12.135C30.0376 12.0151 29.774 11.8391 29.5521 11.6171C29.3301 11.3952 29.1541 11.1316 29.0342 10.8416C28.9142 10.5515 28.8526 10.2407 28.8529 9.92678C28.8529 9.61312 28.9146 9.30254 29.0347 9.01275C29.1547 8.72297 29.3306 8.45967 29.5524 8.23788C29.7742 8.01609 30.0375 7.84016 30.3273 7.72013C30.6171 7.6001 30.9277 7.53832 31.2413 7.53832C31.555 7.53832 31.8656 7.6001 32.1553 7.72013C32.4451 7.84016 32.7084 8.01609 32.9302 8.23788C33.152 8.45967 33.3279 8.72297 33.448 9.01275C33.568 9.30254 33.6298 9.61312 33.6298 9.92678C33.6298 11.2479 32.5613 12.3163 31.2424 12.3163Z" fill="#CCCCCC"/>
<path d="M20.5873 27.21C24.2637 27.21 27.244 24.2297 27.244 20.5534C27.244 16.877 24.2637 13.8967 20.5873 13.8967C16.9109 13.8967 13.9307 16.877 13.9307 20.5534C13.9307 24.2297 16.9109 27.21 20.5873 27.21Z" fill="#CCCCCC"/>
</svg>
