<svg width="60" height="58" viewBox="0 0 60 58" fill="none" xmlns="http://www.w3.org/2000/svg">
<path fill-rule="evenodd" clip-rule="evenodd" d="M30.0754 0.833374C14.0075 0.833374 0.984558 13.8563 0.984558 29.9242C0.984558 42.775 9.31748 53.6805 20.8791 57.5305C22.3346 57.793 22.8596 56.8975 22.8596 56.1275C22.8596 55.4363 22.8362 53.6046 22.8275 51.1809C14.7337 52.9367 13.0246 47.2784 13.0246 47.2784C11.7062 43.9184 9.79581 43.023 9.79581 43.023C7.15623 41.2175 9.99706 41.2584 9.99706 41.2584C12.9196 41.4625 14.4508 44.2567 14.4508 44.2567C17.0466 48.7017 21.2641 47.4184 22.915 46.6746C23.1804 44.7934 23.9387 43.51 24.7671 42.7838C18.3096 42.0517 11.5196 39.555 11.5196 28.4046C11.5196 25.2342 12.6541 22.6325 14.5062 20.6025C14.2116 19.8646 13.2054 16.9042 14.795 12.9025C14.795 12.9025 17.2362 12.118 22.7925 15.8805C25.1655 15.2349 27.6133 14.9054 30.0725 14.9005C32.5318 14.9044 34.9797 15.234 37.3525 15.8805C42.9116 12.115 45.35 12.9025 45.35 12.9025C46.9396 16.9042 45.9421 19.8646 45.6387 20.6025C47.5054 22.6325 48.6254 25.2313 48.6254 28.4046C48.6254 39.5842 41.8296 42.04 35.3487 42.7605C36.3841 43.6588 37.3175 45.4321 37.3175 48.1446C37.3175 52.0355 37.2825 55.1738 37.2825 56.1275C37.2825 56.9063 37.8016 57.8105 39.2862 57.5246C50.8421 53.6688 59.1662 42.7721 59.1662 29.9242C59.1662 13.8563 46.1433 0.833374 30.0754 0.833374Z" fill="#CCCCCC"/>
</svg>
