<svg width="59" height="48" viewBox="0 0 59 48" fill="none" xmlns="http://www.w3.org/2000/svg">
<path d="M52.2629 12.3247C52.3008 12.8351 52.3008 13.3426 52.3008 13.8501C52.3008 29.3813 40.4796 47.278 18.8758 47.278C12.22 47.278 6.03668 45.3501 0.833344 42.0018C1.77834 42.1097 2.68834 42.1476 3.67126 42.1476C8.95915 42.1604 14.0973 40.3922 18.2575 37.128C15.8058 37.0836 13.4292 36.2748 11.4595 34.8143C9.48972 33.3539 8.02521 31.3148 7.27043 28.9818C7.99668 29.0897 8.72584 29.1626 9.49001 29.1626C10.5429 29.1626 11.6017 29.0168 12.5846 28.763C9.92389 28.2258 7.53139 26.7836 5.8139 24.6817C4.0964 22.5797 3.15995 19.9478 3.16376 17.2334V17.0876C4.73001 17.9597 6.54709 18.5051 8.47209 18.578C6.85944 17.5064 5.53711 16.0522 4.62308 14.3453C3.70906 12.6384 3.23176 10.7317 3.23376 8.7955C3.23376 6.61384 3.81418 4.613 4.83209 2.86884C7.78416 6.50014 11.4661 9.47089 15.6393 11.5887C19.8126 13.7065 24.3841 14.924 29.0579 15.1626C28.8771 14.2876 28.7663 13.3805 28.7663 12.4705C28.7655 10.9275 29.0688 9.39942 29.659 7.9737C30.2491 6.54798 31.1145 5.25255 32.2056 4.16147C33.2966 3.07038 34.5921 2.20503 36.0178 1.6149C37.4435 1.02476 38.9716 0.721403 40.5146 0.722169C43.8979 0.722169 46.9517 2.13967 49.0983 4.43217C51.7285 3.92355 54.2508 2.9634 56.5533 1.59425C55.6766 4.30913 53.8401 6.61122 51.3879 8.06925C53.7206 7.80319 56.0004 7.18974 58.1517 6.24925C56.545 8.59162 54.554 10.6457 52.2629 12.3247Z" fill="#CCCCCC"/>
</svg>
